Coordinates
version=1
nRows=14
nColumns=63
inDegrees=yes

Units are S.I. units (second, meters, Newtons, ...)
If the header above contains a line with 'inDegrees', this indicates whether rotational values are in degrees (yes) or radians (no).

endheader
time	pelvis_tilt	pelvis_list	pelvis_rotation	pelvis_tx	pelvis_ty	pelvis_tz	hip_flexion_r	hip_adduction_r	hip_rotation_r	knee_angle_r	knee_angle_r_beta	ankle_angle_r	subtalar_angle_r	mtp_angle_r	hip_flexion_l	hip_adduction_l	hip_rotation_l	knee_angle_l	knee_angle_l_beta	ankle_angle_l	subtalar_angle_l	mtp_angle_l	L5_S1_Flex_Ext	L5_S1_Lat_Bending	L5_S1_axial_rotation	L4_L5_Flex_Ext	L4_L5_Lat_Bending	L4_L5_axial_rotation	L3_L4_Flex_Ext	L3_L4_Lat_Bending	L3_L4_axial_rotation	L2_L3_Flex_Ext	L2_L3_Lat_Bending	L2_L3_axial_rotation	L1_L2_Flex_Ext	L1_L2_Lat_Bending	L1_L2_axial_rotation	L1_T12_Flex_Ext	L1_T12_Lat_Bending	L1_T12_axial_rotation	Abs_r3	Abs_r2	Abs_r1	Abs_t1	Abs_t2	neck_flexion	neck_bending	neck_rotation	arm_flex_r	arm_add_r	arm_rot_r	elbow_flex_r	pro_sup_r	wrist_flex_r	wrist_dev_r	arm_flex_l	arm_add_l	arm_rot_l	elbow_flex_l	pro_sup_l	wrist_flex_l	wrist_dev_l
1.250000	2.689383	-12.326354	100.122252	0.168741	0.335629	0.642701	-0.919836	-0.685234	-17.027270	5.399163	0.094233	12.110263	13.837214	0.000000	-2.290452	1.851794	0.530385	0.601418	0.010497	15.590422	-9.863345	0.000000	0.043364	1.061224	2.333062	0.080531	1.411428	2.478878	0.071242	2.580261	2.478878	0.049560	2.580261	2.041429	0.040268	2.164049	1.895613	0.024778	1.643837	1.749796	0.309743	12.004782	12.975789	0.000000	0.000000	28.087144	-7.290913	25.773991	18.988560	-3.556359	179.400225	1.550141	3.950575	-0.866519	-6.900436	46.997106	-14.688152	32.214666	145.507021	81.868279	19.201072	33.680897
1.270833	2.672664	-12.237475	100.133477	0.168761	0.335637	0.642738	-1.055418	-0.692195	-17.037712	5.398511	0.094222	11.995712	13.784473	0.000000	-2.388276	1.848957	0.525596	0.588814	0.010277	15.677594	-9.740896	0.000000	0.041224	1.071600	2.323765	0.076557	1.425228	2.469000	0.067726	2.605488	2.469000	0.047115	2.605488	2.033294	0.038280	2.185206	1.888059	0.023555	1.659908	1.742824	0.294457	12.122152	12.924084	0.000000	0.000000	28.075607	-7.479083	25.804110	19.071673	-3.622701	179.616452	1.580433	3.913544	-1.239406	-6.685962	47.071130	-14.461295	29.763734	145.250760	82.891269	20.635356	33.906078
1.291667	2.624581	-12.114268	100.172334	0.168968	0.335792	0.643053	-1.202559	-0.712220	-17.036427	5.408005	0.094387	11.920035	13.719808	0.000000	-2.495175	1.859719	0.564911	0.594890	0.010383	15.722680	-9.641349	0.000000	0.028387	1.075997	2.355036	0.052718	1.431076	2.502226	0.046638	2.616180	2.502226	0.032444	2.616180	2.060657	0.026361	2.194173	1.913467	0.016221	1.666720	1.766277	0.202768	12.171895	13.098004	0.000000	0.000000	28.033560	-7.778127	25.590836	19.158717	-3.749699	179.602735	1.579357	3.829736	-1.581196	-6.527576	47.382540	-13.996348	27.083914	144.966574	84.013749	22.236903	33.910566
1.312500	2.550481	-11.968454	100.272783	0.169327	0.336082	0.643620	-1.357177	-0.739334	-17.052566	5.416989	0.094544	11.880661	13.635146	0.000000	-2.588862	1.877410	0.640199	0.636477	0.011109	15.749811	-9.505634	0.000000	0.007174	1.074560	2.419509	0.013322	1.429164	2.570728	0.011785	2.612684	2.570728	0.008199	2.612684	2.117070	0.006661	2.191242	1.965851	0.004099	1.664493	1.814631	0.051240	12.155633	13.456581	0.000000	0.000000	27.975147	-8.177415	25.164182	19.240668	-3.928680	179.097653	1.571977	3.723967	-1.859822	-6.404955	47.912695	-13.284080	24.194899	144.631706	85.278314	24.166747	33.641109
1.333333	2.433322	-11.810249	100.386091	0.169851	0.336466	0.644348	-1.513260	-0.796613	-17.068634	5.426643	0.094713	11.902098	13.583698	0.000000	-2.694054	1.928654	0.777509	0.667929	0.011658	15.701430	-9.469391	0.000000	-0.021228	1.064847	2.521852	-0.039423	1.416246	2.679468	-0.034876	2.589068	2.679468	-0.024262	2.589068	2.206621	-0.019712	2.171436	2.049005	-0.012130	1.649448	1.891389	-0.151630	12.045760	14.025786	0.000000	0.000000	27.922578	-8.693765	24.485398	19.309843	-4.134631	178.345161	1.554892	3.593297	-2.113682	-6.281574	48.689629	-12.331718	21.255267	144.201836	86.385694	26.308163	33.369785
1.354167	2.298405	-11.635223	100.491931	0.170503	0.336951	0.645176	-1.675153	-0.861441	-17.072968	5.426728	0.094714	11.947627	13.569322	0.000000	-2.812525	1.990288	1.011255	0.696841	0.012162	15.571088	-9.623638	0.000000	-0.056631	1.051476	2.654048	-0.105169	1.398464	2.819926	-0.093039	2.556560	2.819926	-0.064724	2.556560	2.322292	-0.052588	2.144171	2.156414	-0.032359	1.628737	1.990536	-0.404510	11.894512	14.761016	0.000000	0.000000	27.876489	-9.278924	23.720805	19.370527	-4.371603	177.286336	1.539959	3.453903	-2.252305	-6.222367	49.638252	-11.202392	18.381171	143.657491	87.403200	28.517560	33.034008
1.375000	2.159995	-11.455072	100.588466	0.171247	0.337496	0.646041	-1.834459	-0.923376	-17.069178	5.413121	0.094477	12.003472	13.586665	0.000000	-2.931876	2.049272	1.167431	0.728651	0.012717	15.435807	-9.710783	0.000000	-0.095661	1.036057	2.804147	-0.177652	1.377956	2.979406	-0.157161	2.519070	2.979406	-0.109331	2.519070	2.453628	-0.088831	2.112728	2.278369	-0.054661	1.604853	2.103110	-0.683296	11.720090	15.595823	0.000000	0.000000	27.815160	-9.903660	22.919507	19.422067	-4.618458	175.959026	1.541967	3.319052	-2.286563	-6.215107	50.672961	-9.962098	15.673323	143.024451	88.299354	30.674994	32.676683
1.395833	2.018157	-11.264087	100.662052	0.172049	0.338081	0.646884	-1.994003	-0.986688	-17.064706	5.402281	0.094288	12.049677	13.625044	0.000000	-3.062234	2.109515	1.239163	0.766301	0.013374	15.297545	-9.755845	0.000000	-0.138290	1.018557	2.964724	-0.256819	1.354681	3.150020	-0.227197	2.476520	3.150020	-0.158052	2.476520	2.594134	-0.128416	2.077042	2.408839	-0.079019	1.577745	2.223543	-0.987794	11.522122	16.488908	0.000000	0.000000	27.715675	-10.548213	22.032658	19.455715	-4.862079	174.321582	1.560264	3.175793	-2.191709	-6.271810	51.755234	-8.671005	13.228029	142.340360	89.081289	32.819625	32.263912
1.416667	1.888129	-11.074796	100.726381	0.172835	0.338666	0.647670	-2.148825	-1.041021	-17.091462	5.385943	0.094002	12.087557	13.707313	0.000000	-3.190763	2.159230	1.248500	0.808108	0.014104	15.142712	-9.764616	0.000000	-0.182903	1.002018	3.110255	-0.339669	1.332684	3.304646	-0.300491	2.436306	3.304646	-0.209039	2.436306	2.721473	-0.169843	2.043315	2.527082	-0.104511	1.552125	2.332691	-1.306456	11.335025	17.298305	0.000000	0.000000	27.554867	-11.151573	21.272624	19.509234	-5.070084	172.815047	1.601455	3.028729	-2.087699	-6.383654	52.769241	-7.461097	11.173725	141.775384	89.554725	34.186030	31.960634
1.437500	1.771802	-10.905185	100.756448	0.173595	0.339208	0.648308	-2.278207	-1.088527	-17.080685	5.375684	0.093823	12.119655	13.762905	0.000000	-3.309345	2.202563	1.060673	0.849111	0.014820	15.025996	-9.559809	0.000000	-0.224555	0.986402	3.242417	-0.417022	1.311914	3.445068	-0.368922	2.398337	3.445068	-0.256644	2.398337	2.837115	-0.208522	2.011470	2.634464	-0.128311	1.527936	2.431813	-1.603976	11.158372	18.033351	0.000000	0.000000	27.244732	-11.677934	20.630984	19.549819	-5.237338	171.220303	1.652939	2.991445	-1.884777	-6.524293	53.659120	-6.345707	9.556151	141.330339	89.770512	34.869691	31.581098
1.458333	1.698128	-10.753905	100.790630	0.174265	0.339712	0.648840	-2.391354	-1.097582	-17.088814	5.347148	0.093325	12.115813	13.832980	0.000000	-3.410404	2.211743	0.796132	0.885195	0.015450	14.916181	-9.285398	0.000000	-0.262756	0.974615	3.354131	-0.487965	1.296239	3.563764	-0.431683	2.369680	3.563764	-0.300304	2.369680	2.934864	-0.243996	1.987436	2.725231	-0.150139	1.509679	2.515598	-1.876843	11.025045	18.654669	0.000000	0.000000	26.826802	-12.132364	20.068943	19.592572	-5.373742	169.916005	1.712535	2.894541	-1.642329	-6.707568	54.450554	-5.326228	8.412558	141.013957	89.662297	34.951813	31.147207
1.479167	1.655323	-10.622880	100.820596	0.174846	0.340166	0.649235	-2.486012	-1.079797	-17.079492	5.312751	0.092725	12.120889	13.880871	0.000000	-3.495798	2.197467	0.524251	0.921034	0.016075	14.807788	-9.028248	0.000000	-0.297518	0.967101	3.447476	-0.552520	1.286245	3.662943	-0.488792	2.351410	3.662943	-0.340033	2.351410	3.016541	-0.276275	1.972113	2.801074	-0.170002	1.498040	2.585607	-2.125140	10.940044	19.173826	0.000000	0.000000	26.289522	-12.539291	19.668695	19.625624	-5.485884	168.729965	1.784347	2.789540	-1.340785	-6.912486	55.111016	-4.376280	7.621154	140.889579	89.296015	34.658061	30.804911
1.500000	1.631956	-10.520229	100.854450	0.175333	0.340528	0.649494	-2.556658	-1.047768	-17.060782	5.276511	0.092092	12.158770	13.914090	0.000000	-3.561289	2.172018	0.215071	0.953513	0.016642	14.731969	-8.715706	0.000000	-0.326807	0.961501	3.522592	-0.606914	1.278796	3.742754	-0.536912	2.337793	3.742754	-0.373508	2.337793	3.082268	-0.303473	1.960692	2.862106	-0.186738	1.489365	2.641944	-2.334352	10.876689	19.591599	0.000000	0.000000	25.611979	-12.816740	19.378661	19.644659	-5.565754	167.738469	1.863587	2.708661	-0.970470	-7.146751	55.656033	-3.495723	7.133736	140.997294	88.902781	34.202219	30.609458
1.520833	1.639015	-10.463624	100.907066	0.175688	0.340787	0.649652	-2.583060	-0.992831	-17.027636	5.234755	0.091364	12.224419	13.911213	0.000000	-3.582482	2.129813	-0.108168	0.983475	0.017165	14.685325	-8.367900	0.000000	-0.347779	0.960582	3.572956	-0.645860	1.277573	3.796265	-0.571366	2.335558	3.796265	-0.397476	2.335558	3.126336	-0.322947	1.958818	2.903027	-0.198721	1.487941	2.679717	-2.484150	10.866291	19.871708	0.000000	0.000000	24.836213	-13.015084	19.358321	19.659595	-5.616890	167.102707	1.952007	2.643002	-0.579391	-7.378303	56.043835	-2.747080	6.902099	141.361944	88.721988	33.456759	30.263752
